<svg width="109" height="23" viewBox="0 0 109 23" fill="none" xmlns="http://www.w3.org/2000/svg">
<path d="M0.72801 2.11818H5.91204L11.3873 15.4763H11.6203L17.0956 2.11818H22.2796V22H18.2023V9.05934H18.0372L12.892 21.9029H10.1156L4.97037 9.0108H4.80534V22H0.72801V2.11818ZM32.4608 22.2912C30.9269 22.2912 29.6066 21.9806 28.4999 21.3593C27.3997 20.7315 26.5519 19.8448 25.9565 18.6993C25.361 17.5473 25.0633 16.185 25.0633 14.6123C25.0633 13.0784 25.361 11.7323 25.9565 10.5738C26.5519 9.4153 27.39 8.51246 28.4708 7.86527C29.5581 7.21808 30.8331 6.89448 32.2957 6.89448C33.2795 6.89448 34.1953 7.05304 35.0431 7.37017C35.8974 7.68082 36.6416 8.15004 37.2759 8.77781C37.9166 9.40559 38.415 10.1952 38.7709 11.1465C39.1269 12.0915 39.3049 13.1982 39.3049 14.4667V15.6025H26.7137V13.0396H35.412C35.412 12.4442 35.2825 11.9167 35.0237 11.4572C34.7648 10.9977 34.4056 10.6385 33.9461 10.3796C33.493 10.1143 32.9656 9.9816 32.3637 9.9816C31.7359 9.9816 31.1793 10.1272 30.6939 10.4185C30.215 10.7032 29.8396 11.0883 29.5678 11.5737C29.296 12.0526 29.1568 12.5866 29.1504 13.1755V15.6122C29.1504 16.35 29.2863 16.9875 29.5581 17.5246C29.8364 18.0618 30.2279 18.476 30.7328 18.7673C31.2376 19.0585 31.8362 19.2041 32.5287 19.2041C32.9882 19.2041 33.4089 19.1394 33.7908 19.01C34.1726 18.8805 34.4994 18.6864 34.7713 18.4275C35.0431 18.1686 35.2502 17.8515 35.3926 17.4761L39.2175 17.7285C39.0233 18.6475 38.6253 19.4501 38.0234 20.1361C37.428 20.8156 36.6578 21.3463 35.7129 21.7282C34.7745 22.1036 33.6904 22.2912 32.4608 22.2912ZM51.566 15.651V7.08864H55.7015V22H51.731V19.2915H51.5757C51.2391 20.1652 50.6793 20.8674 49.8962 21.3981C49.1196 21.9288 48.1714 22.1942 47.0518 22.1942C46.0551 22.1942 45.1781 21.9676 44.4209 21.5146C43.6637 21.0616 43.0715 20.4176 42.6444 19.5827C42.2237 18.7478 42.0101 17.7479 42.0037 16.583V7.08864H46.1392V15.8452C46.1457 16.7254 46.3819 17.4211 46.8479 17.9324C47.3139 18.4437 47.9384 18.6993 48.7215 18.6993C49.2199 18.6993 49.6859 18.586 50.1195 18.3595C50.5531 18.1265 50.9026 17.7835 51.1679 17.3305C51.4397 16.8775 51.5724 16.3176 51.566 15.651ZM69.8727 7.83615C69.795 7.05304 69.4617 6.44468 68.8727 6.01106C68.2838 5.57744 67.4845 5.36063 66.4749 5.36063C65.7889 5.36063 65.2096 5.45771 64.7372 5.65186C64.2647 5.83955 63.9023 6.10166 63.6499 6.43821C63.404 6.77475 63.281 7.15659 63.281 7.58374C63.268 7.9397 63.3425 8.25035 63.5043 8.5157C63.6725 8.78105 63.9023 9.0108 64.1935 9.20496C64.4848 9.39265 64.8213 9.55768 65.2032 9.70007C65.585 9.83598 65.9927 9.95247 66.4264 10.0496L68.2126 10.4767C69.0798 10.6709 69.8759 10.9297 70.6008 11.2533C71.3256 11.5769 71.9534 11.975 72.4841 12.4474C73.0148 12.9199 73.4258 13.4764 73.717 14.1172C74.0147 14.7579 74.1668 15.4925 74.1733 16.3209C74.1668 17.5376 73.8561 18.5925 73.2413 19.4856C72.6329 20.3723 71.7528 21.0616 70.6008 21.5534C69.4552 22.0388 68.0735 22.2815 66.4555 22.2815C64.8504 22.2815 63.4525 22.0356 62.2617 21.5437C61.0773 21.0519 60.1518 20.3238 59.4852 19.3594C58.825 18.3887 58.4788 17.1881 58.4464 15.7578H62.5141C62.5594 16.4244 62.7503 16.981 63.0868 17.4276C63.4298 17.8677 63.8861 18.201 64.4556 18.4275C65.0316 18.6475 65.6821 18.7576 66.4069 18.7576C67.1188 18.7576 67.7369 18.654 68.2611 18.4469C68.7918 18.2398 69.2028 17.9518 69.4941 17.5829C69.7853 17.214 69.9309 16.7901 69.9309 16.3112C69.9309 15.8646 69.7982 15.4892 69.5329 15.185C69.274 14.8809 68.8922 14.622 68.3873 14.4084C67.889 14.1948 67.2774 14.0007 66.5526 13.8259L64.3877 13.2823C62.7115 12.8746 61.3879 12.2371 60.4171 11.3698C59.4464 10.5026 58.9642 9.3344 58.9707 7.86527C58.9642 6.66149 59.2846 5.6098 59.9318 4.7102C60.5854 3.8106 61.4818 3.10839 62.6208 2.60358C63.7599 2.09877 65.0543 1.84636 66.504 1.84636C67.9796 1.84636 69.2675 2.09877 70.3678 2.60358C71.4745 3.10839 72.3352 3.8106 72.9501 4.7102C73.5649 5.6098 73.882 6.65178 73.9014 7.83615H69.8727ZM76.923 22V7.08864H81.0586V22H76.923ZM79.0005 5.16647C78.3857 5.16647 77.8582 4.9626 77.4181 4.55487C76.9845 4.14066 76.7677 3.64556 76.7677 3.06956C76.7677 2.50003 76.9845 2.01139 77.4181 1.60366C77.8582 1.18946 78.3857 0.982355 79.0005 0.982355C79.6154 0.982355 80.1396 1.18946 80.5732 1.60366C81.0133 2.01139 81.2334 2.50003 81.2334 3.06956C81.2334 3.64556 81.0133 4.14066 80.5732 4.55487C80.1396 4.9626 79.6154 5.16647 79.0005 5.16647ZM92.3028 7.08864V10.1952H83.323V7.08864H92.3028ZM85.3616 3.51612H89.4972V17.4179C89.4972 17.7997 89.5555 18.0974 89.672 18.311C89.7885 18.5181 89.9503 18.6637 90.1574 18.7478C90.3709 18.832 90.6169 18.8741 90.8952 18.8741C91.0893 18.8741 91.2835 18.8579 91.4776 18.8255C91.6718 18.7867 91.8206 18.7576 91.9242 18.7381L92.5746 21.8155C92.3675 21.8803 92.0763 21.9547 91.7009 22.0388C91.3255 22.1294 90.8693 22.1845 90.3321 22.2039C89.3354 22.2427 88.4617 22.11 87.711 21.8058C86.9667 21.5017 86.3874 21.0292 85.9732 20.3885C85.559 19.7478 85.3552 18.9388 85.3616 17.9615V3.51612ZM101.632 22.2912C100.098 22.2912 98.778 21.9806 97.6713 21.3593C96.5711 20.7315 95.7232 19.8448 95.1278 18.6993C94.5324 17.5473 94.2347 16.185 94.2347 14.6123C94.2347 13.0784 94.5324 11.7323 95.1278 10.5738C95.7232 9.4153 96.5613 8.51246 97.6422 7.86527C98.7294 7.21808 100.004 6.89448 101.467 6.89448C102.451 6.89448 103.367 7.05304 104.214 7.37017C105.069 7.68082 105.813 8.15004 106.447 8.77781C107.088 9.40559 107.586 10.1952 107.942 11.1465C108.298 12.0915 108.476 13.1982 108.476 14.4667V15.6025H95.885V13.0396H104.583C104.583 12.4442 104.454 11.9167 104.195 11.4572C103.936 10.9977 103.577 10.6385 103.117 10.3796C102.664 10.1143 102.137 9.9816 101.535 9.9816C100.907 9.9816 100.351 10.1272 99.8653 10.4185C99.3864 10.7032 99.011 11.0883 98.7392 11.5737C98.4673 12.0526 98.3282 12.5866 98.3217 13.1755V15.6122C98.3217 16.35 98.4576 16.9875 98.7294 17.5246C99.0077 18.0618 99.3993 18.476 99.9041 18.7673C100.409 19.0585 101.008 19.2041 101.7 19.2041C102.16 19.2041 102.58 19.1394 102.962 19.01C103.344 18.8805 103.671 18.6864 103.943 18.4275C104.214 18.1686 104.422 17.8515 104.564 17.4761L108.389 17.7285C108.195 18.6475 107.797 19.4501 107.195 20.1361C106.599 20.8156 105.829 21.3463 104.884 21.7282C103.946 22.1036 102.862 22.2912 101.632 22.2912Z" fill="#141A26"/>
</svg>
